# Blender v2.81 (sub 16) OBJ File: ''
# www.blender.org
mtllib velkyJednodochy.mtl
o Plane
v -20.000000 3.000000 20.000000
v 20.000000 3.000000 20.000000
v -20.000000 1.000000 -20.000000
v 20.000000 1.000000 -20.000000
v -20.000000 2.000000 0.000000
v 20.000000 2.000000 0.000000
v 0.000000 3.000000 20.000000
v 0.000000 1.000000 -20.000000
v 0.000000 2.000000 0.000000
v -20.000000 2.500000 10.000000
v 20.000000 2.500000 10.000000
v 0.000000 2.500000 10.000000
v 20.000000 1.500000 -10.000000
v -20.000000 1.500000 -10.000000
v 0.000000 1.500000 -10.000000
v -10.000000 1.000000 -20.000000
v -10.000000 2.000000 0.000000
v -10.000000 3.000000 20.000000
v -10.000000 2.500000 10.000000
v -10.000000 1.500000 -10.000000
v 10.000000 3.000000 20.000000
v 10.000000 1.000000 -20.000000
v 10.000000 2.000000 0.000000
v 10.000000 2.500000 10.000000
v 10.000000 1.500000 -10.000000
vt 0.750000 0.750000
vt 1.000000 0.750000
vt 1.000000 1.000000
vt 0.750000 1.000000
vt 0.750000 0.250000
vt 1.000000 0.250000
vt 1.000000 0.500000
vt 0.750000 0.500000
vt 0.250000 0.250000
vt 0.500000 0.250000
vt 0.500000 0.500000
vt 0.250000 0.500000
vt 0.250000 0.750000
vt 0.500000 0.750000
vt 0.500000 1.000000
vt 0.250000 1.000000
vt 0.250000 0.000000
vt 0.500000 0.000000
vt 0.750000 0.000000
vt 1.000000 0.000000
vt 0.000000 0.500000
vt 0.000000 0.750000
vt 0.000000 0.000000
vt 0.000000 0.250000
vt 0.000000 1.000000
vn 0.0000 0.9988 -0.0499
usemtl None
s off
f 25/1/1 13/2/1 4/3/1 22/4/1
f 24/5/1 11/6/1 6/7/1 23/8/1
f 19/9/1 12/10/1 9/11/1 17/12/1
f 20/13/1 15/14/1 8/15/1 16/16/1
f 18/17/1 7/18/1 12/10/1 19/9/1
f 21/19/1 2/20/1 11/6/1 24/5/1
f 17/12/1 9/11/1 15/14/1 20/13/1
f 23/8/1 6/7/1 13/2/1 25/1/1
f 5/21/1 17/12/1 20/13/1 14/22/1
f 1/23/1 18/17/1 19/9/1 10/24/1
f 14/22/1 20/13/1 16/16/1 3/25/1
f 10/24/1 19/9/1 17/12/1 5/21/1
f 9/11/1 23/8/1 25/1/1 15/14/1
f 7/18/1 21/19/1 24/5/1 12/10/1
f 12/10/1 24/5/1 23/8/1 9/11/1
f 15/14/1 25/1/1 22/4/1 8/15/1
